<?xml version="1.0" encoding="utf-8"?>
<!-- Generator: Adobe Illustrator 21.1.0, SVG Export Plug-In . SVG Version: 6.00 Build 0)  -->
<svg version="1.1" id="Layer_1" xmlns="http://www.w3.org/2000/svg" xmlnsXlink="http://www.w3.org/1999/xlink" x="0px" y="0px"
	 viewBox="0 0 1366 768" style="enable-background:new 0 0 1366 768;" width="100%" height="500px" xmlSpace="preserve">
<path class="st0" d="M29.5,601.5c0,0,29,9,44-19"/>
<path class="st0" d="M86.8,618.5c0,0,24.2,18.3,47.8-2.9"/>
<path class="st0" d="M35.6,634.7c0,0,14.5,26.7,44.8,17.1"/>
<path class="st0" d="M73.2,721.9c0,0,26.6,14.6,46.9-9.8"/>
<path class="st0" d="M153.2,584.3c0,0-23.9-18.7-47.9,2.1"/>
<path class="st0" d="M197.2,638.3c0,0-23.9-18.7-47.9,2.1"/>
<path class="st0" d="M188.2,665.9c0,0-30.2,3.2-32.9,34.8"/>
<path class="st0" d="M152.6,736.5c0,0,30.2,3.4,39.6-27"/>
<path class="st0" d="M176.1,603.9c0,0,29.5,7.1,42.6-21.9"/>
<path class="st0" d="M227.1,661.1c0,0,22.3-20.6,5.6-47.6"/>
<path class="st0" d="M218.1,690.9c0,0,29.5,7.1,42.6-21.9"/>
<path class="st0" d="M267.2,727.3c0,0-23.1-19.8-47.9,0"/>
<path class="st0" d="M90.5,688.9c0,0,30.3,1.2,37.6-29.8"/>
<path class="st0" d="M56.2,681.7c0,0-28.8,9.6-24.6,41.1"/>
<path class="st0" d="M493.8,655.1c0,0-30.3-1.9-38.3,28.8"/>
<path class="st0" d="M434.1,646.1c0,0-27.8-12.1-45.8,14.1"/>
<path class="st0" d="M497.1,619.3c0,0-20.4-22.5-47.5-6.1"/>
<path class="st0" d="M440,543.4c0,0-29.3-8-43.3,20.6"/>
<path class="st0" d="M387.8,710.7c0,0,30.2-3,33.2-34.6"/>
<path class="st0" d="M309.5,639.8c0,0,16.8,25.3,46.1,13.1"/>
<path class="st0" d="M332.2,614.7c0,0,29.5,7.3,42.8-21.5"/>
<path class="st0" d="M319.5,562.2c0,0,21.1,21.8,47.7,4.5"/>
<path class="st0" d="M367.7,682.3c0,0-30.4,0.1-36.3,31.3"/>
<path class="st0" d="M294.7,669.7c0,0-16.9,25.3,5.7,47.6"/>
<path class="st0" d="M306.4,607.6c0,0-30.4,0.1-36.3,31.3"/>
<path class="st0" d="M256.7,592.6c0,0,29.9-5,30.7-36.8"/>
<path class="st0" d="M430.9,579.5c0,0-29.8,6-29.5,37.8"/>
<path class="st0" d="M466,578.5c0,0,25.7-16.2,14.2-45.8"/>
</svg>
