<svg version="1.1" id="Layer_1" x="0px" y="0px"
	 viewBox="0 0 100 304" style="enable-background:new 0 0 100 304;height:200px;">
<g>
	<path class="vertSquiggle" style="animation:vertshift .8s linear infinite;fill:none;stroke:#FFFFFF;stroke-width:3;stroke-linecap:round;stroke-linejoin:round;stroke-miterlimit:10;" d="M46.5,311.5c0-13.2,8-13.2,8-26.5c0-13.2-8-13.2-8-26.5c0-13.2,8-13.2,8-26.5c0-13.2-8-13.2-8-26.5
		c0-13.2,8-13.2,8-26.5c0-13.2-8-13.2-8-26.5c0-13.2,8-13.2,8-26.5c0-13.2-8-13.2-8-26.5c0-13.3,8-13.3,8-26.5c0-13.3-8-13.3-8-26.5
		c0-13.3,8-13.3,8-26.5c0-13.3-8-13.3-8-26.5c0-13.3,8-13.3,8-26.5s-8-13.3-8-26.5"/>
</g>
</svg>
